<svg xmlns="http://www.w3.org/2000/svg" width="21" height="20" viewBox="0 0 21 20" fill="none">
<g clip-path="url(#clip0_340_3497)">
<path d="M20.2879 10.2249C20.2879 9.56659 20.2296 8.94159 20.1296 8.33325H10.7129V12.0916H16.1046C15.8629 13.3249 15.1546 14.3666 14.1046 15.0749V17.5749H17.3212C19.2046 15.8333 20.2879 13.2666 20.2879 10.2249Z" fill="#4285F4"/>
<path d="M10.7131 20.0001C13.4131 20.0001 15.6714 19.1001 17.3214 17.5751L14.1048 15.0751C13.2048 15.6751 12.0631 16.0418 10.7131 16.0418C8.10475 16.0418 5.89642 14.2834 5.10475 11.9084H1.78809V14.4834C3.42975 17.7501 6.80475 20.0001 10.7131 20.0001Z" fill="#34A853"/>
<path d="M5.10456 11.9083C4.89622 11.3083 4.78789 10.6666 4.78789 9.99993C4.78789 9.33327 4.90456 8.6916 5.10456 8.0916V5.5166H1.78789C1.10456 6.8666 0.712891 8.38327 0.712891 9.99993C0.712891 11.6166 1.10456 13.1333 1.78789 14.4833L5.10456 11.9083Z" fill="#FBBC05"/>
<path d="M10.7131 3.95833C12.1881 3.95833 13.5048 4.46667 14.5464 5.45834L17.3964 2.60833C15.6714 0.991667 13.4131 0 10.7131 0C6.80475 0 3.42975 2.25 1.78809 5.51667L5.10475 8.09167C5.89642 5.71667 8.10475 3.95833 10.7131 3.95833Z" fill="#EA4335"/>
</g>
<defs>
<clipPath id="clip0_340_3497">
<rect width="20" height="20" fill="white" transform="translate(0.5)"/>
</clipPath>
</defs>
</svg>