<svg width="20" height="21" viewBox="0 0 20 21" fill="none" xmlns="http://www.w3.org/2000/svg">
<g clip-path="url(#clip0_336_3579)">
<path d="M16.0748 14.9084L14.9998 13.8334V9.66671C14.9998 7.10837 13.6331 4.96671 11.2498 4.40004V3.83337C11.2498 3.14171 10.6915 2.58337 9.9998 2.58337C9.30813 2.58337 8.7498 3.14171 8.7498 3.83337V4.40004C6.35813 4.96671 4.9998 7.10004 4.9998 9.66671V13.8334L3.9248 14.9084C3.3998 15.4334 3.76647 16.3334 4.50813 16.3334H15.4831C16.2331 16.3334 16.5998 15.4334 16.0748 14.9084ZM13.3331 14.6667H6.66647V9.66671C6.66647 7.60004 7.9248 5.91671 9.9998 5.91671C12.0748 5.91671 13.3331 7.60004 13.3331 9.66671V14.6667ZM9.9998 18.8334C10.9165 18.8334 11.6665 18.0834 11.6665 17.1667H8.33313C8.33313 18.0834 9.0748 18.8334 9.9998 18.8334Z" fill="#9F9BB9"/>
</g>
<defs>
<clipPath id="clip0_336_3579">
<rect width="20" height="20" fill="white" transform="translate(0 0.5)"/>
</clipPath>
</defs>
</svg>
